<svg version="1.1" id="Layer_1" xmlns="http://www.w3.org/2000/svg" xmlns:xlink="http://www.w3.org/1999/xlink" x="0px" y="0px"
	 width="100%" viewBox="0 0 200 200" enable-background="new 0 0 200 200" xml:space="preserve">
<path fill="#019CFB" opacity="1.000000" stroke="none" 
	d="
M1.000001,120.000000 
	C1.000000,107.645775 1.000000,95.291542 1.298776,82.809700 
	C2.062684,81.870255 2.767767,81.109261 2.952374,80.237991 
	C3.864430,75.933426 3.926345,71.294609 5.618358,67.343315 
	C8.619787,60.334194 12.146262,53.456551 16.266876,47.047096 
	C20.151150,41.005260 24.983997,35.554314 29.598486,30.008965 
	C31.863129,27.287481 34.268787,24.485506 37.156235,22.522528 
	C42.662567,18.779156 48.338238,15.130542 54.362453,12.350080 
	C59.573860,9.944768 64.070488,5.878325 70.433899,5.740398 
	C74.024559,5.662571 77.596153,3.970031 81.128197,2.852697 
	C81.569954,2.712950 81.716614,1.640361 82.000000,1.000000 
	C94.354225,1.000000 106.708458,1.000000 119.190300,1.298777 
	C120.129753,2.062684 120.890747,2.767764 121.762024,2.952371 
	C126.066589,3.864426 130.705399,3.926345 134.656693,5.618362 
	C141.665817,8.619792 148.543442,12.146267 154.952896,16.266874 
	C160.994736,20.151142 166.445694,24.983994 171.991043,29.598480 
	C174.712524,31.863123 177.514511,34.268776 179.477478,37.156223 
	C183.220856,42.662556 186.869446,48.338234 189.649933,54.362453 
	C192.055237,59.573860 196.121674,64.070503 196.259598,70.433914 
	C196.337433,74.024574 198.029968,77.596161 199.147308,81.128204 
	C199.287048,81.569962 200.359650,81.716614 201.000000,82.000000 
	C201.000000,94.354225 201.000000,106.708458 200.701233,119.190292 
	C199.937317,120.129738 199.232239,120.890732 199.047638,121.761993 
	C198.135590,126.066566 198.073654,130.705368 196.381638,134.656677 
	C193.380219,141.665802 189.853760,148.543457 185.733139,154.952927 
	C181.848862,160.994751 177.016006,166.445694 172.401505,171.991043 
	C170.136856,174.712524 167.731232,177.514511 164.843765,179.477493 
	C159.337448,183.220871 153.661758,186.869446 147.637543,189.649902 
	C142.426132,192.055237 137.929504,196.121674 131.566101,196.259598 
	C127.975433,196.337448 124.403839,198.029968 120.871788,199.147308 
	C120.430038,199.287048 120.283379,200.359634 120.000000,201.000000 
	C107.645775,201.000000 95.291542,201.000000 82.809708,200.701233 
	C81.870255,199.937317 81.109268,199.232254 80.237991,199.047653 
	C75.933426,198.135605 71.294609,198.073639 67.343323,196.381638 
	C60.334206,193.380188 53.456558,189.853729 47.047092,185.733124 
	C41.005257,181.848846 35.554314,177.015991 30.008966,172.401505 
	C27.287483,170.136871 24.485487,167.731216 22.522514,164.843781 
	C18.779140,159.337433 15.130533,153.661774 12.350080,147.637543 
	C9.944784,142.426132 5.878309,137.929535 5.740403,131.566101 
	C5.662588,127.975449 3.970030,124.403854 2.852696,120.871803 
	C2.712948,120.430046 1.640361,120.283386 1.000001,120.000000 
M62.912319,98.841339 
	C63.063046,100.415726 63.213772,101.990112 63.364494,103.564499 
	C63.841995,103.540688 64.319496,103.516876 64.796997,103.493057 
	C64.902733,101.660614 65.008476,99.828163 65.136658,97.180519 
	C62.573544,96.271484 60.010429,95.362450 56.864994,94.246887 
	C56.864994,98.363487 56.864994,100.979683 56.864994,103.595879 
	C57.307568,103.630997 57.750141,103.666115 58.192715,103.701233 
	C58.471336,102.367294 58.359726,100.700935 59.135368,99.790375 
	C59.955219,98.827911 61.620243,98.585396 62.912319,98.841339 
M98.273842,112.014084 
	C97.836304,109.971634 97.398773,107.929184 96.961243,105.886734 
	C96.568817,105.896065 96.176392,105.905403 95.783974,105.914734 
	C95.183403,107.942558 94.582832,109.970383 93.514030,111.370468 
	C92.053070,108.020630 89.283005,107.208458 86.755791,109.320213 
	C85.451836,110.409798 84.678375,113.804817 85.412521,115.300545 
	C86.766068,118.058235 89.607452,118.392365 92.685951,116.244362 
	C90.908661,115.561287 89.544868,115.037132 87.275047,114.164764 
	C90.162910,113.149376 92.077560,112.476173 94.458290,112.619553 
	C94.755020,114.100441 95.051750,115.581337 95.436287,117.500450 
	C97.099380,115.749458 98.082390,114.714500 99.060226,114.430565 
	C101.875427,118.329674 103.206100,118.588333 106.318253,115.846870 
	C104.964783,115.402412 103.594482,114.952431 102.224182,114.502449 
	C102.266525,114.195618 102.308876,113.888794 102.351219,113.581963 
	C104.024162,113.238396 105.697113,112.894829 107.370056,112.551262 
	C107.598244,112.130760 107.826424,111.710258 108.054604,111.289757 
	C106.586403,110.290230 104.851204,108.243271 103.711845,108.533707 
	C101.949730,108.982910 100.594711,111.029137 98.273842,112.014084 
M75.517601,104.537926 
	C75.373055,105.447250 75.020248,107.129425 75.113930,107.154663 
	C79.107048,108.230698 77.685112,111.405792 77.882095,113.962921 
	C77.966873,115.063423 78.279716,116.146370 78.488953,117.237289 
	C78.818840,117.222145 79.148727,117.207001 79.478615,117.191856 
	C80.541679,113.544495 81.604736,109.897141 82.829216,105.695946 
	C82.747551,105.625511 81.713081,104.733376 80.921150,102.957031 
	C80.921150,95.874710 80.921150,88.792389 80.921150,81.463684 
	C79.787224,81.463684 78.244125,81.463684 76.466270,81.463684 
	C76.058212,89.119492 75.665489,96.487717 75.517601,104.537926 
M110.053703,99.744324 
	C108.282982,103.734772 107.247223,107.903404 110.701508,111.356598 
	C114.049561,114.703583 117.959641,113.498390 122.555649,110.868896 
	C121.611923,113.329659 121.330780,116.037224 120.311905,116.351265 
	C117.184334,117.315247 113.774017,117.361908 110.220680,117.796082 
	C110.550346,122.174500 114.313652,120.841599 116.839546,121.040436 
	C120.712975,121.345314 125.286018,121.352577 126.013916,116.427589 
	C126.992691,109.805138 126.925858,103.028145 127.295876,96.527664 
	C120.515648,94.971390 114.895821,95.241577 109.769791,98.303772 
	C109.893417,97.821503 110.007523,97.336555 110.142105,96.857376 
	C111.940430,90.454453 110.495415,85.548340 106.002983,82.815140 
	C100.870110,79.692291 92.381775,80.481018 88.329956,84.457291 
	C84.785736,87.935432 83.781097,94.484154 86.138107,98.744789 
	C88.752457,103.470604 94.743523,105.913765 101.085594,104.019028 
	C104.283089,103.063751 107.066650,100.722969 110.053703,99.744324 
M168.389832,110.882523 
	C168.561157,108.391243 168.332016,105.777390 169.043930,103.451584 
	C169.522217,101.889099 171.332855,100.734451 172.547379,99.397331 
	C173.313065,100.869034 174.547668,102.284142 174.733780,103.825813 
	C175.008301,106.099968 174.506760,108.462906 174.402100,110.791016 
	C174.374039,111.415291 174.586670,112.050385 174.749359,113.054138 
	C176.277115,112.940918 177.642883,112.839699 178.931610,112.744186 
	C179.195251,109.427238 179.009933,106.489914 179.790268,103.836578 
	C180.291107,102.133583 182.214355,100.848915 183.500000,99.376732 
	C184.277634,101.006332 185.562134,102.589218 185.717621,104.276161 
	C185.969208,107.005867 185.479004,109.803947 185.273895,113.013664 
	C187.126282,112.925613 188.481873,112.861176 189.841187,112.796562 
	C190.108368,109.194794 190.332779,106.048775 190.576874,102.904289 
	C191.070694,96.542892 187.417984,93.953064 181.568039,96.478951 
	C180.647705,96.876320 179.590332,97.301613 178.637924,97.221207 
	C173.853653,96.817230 169.083176,96.249565 163.929001,95.698921 
	C163.929001,102.112206 163.929001,107.398041 163.929001,113.517067 
	C165.625076,112.819878 166.951370,112.274696 168.389832,110.882523 
M19.995577,98.381920 
	C23.523180,94.184830 29.578590,94.976112 31.215296,100.047867 
	C32.333405,103.512604 33.909454,105.241585 37.851860,103.492966 
	C35.434525,96.824356 33.114414,90.095665 30.538416,83.466408 
	C29.379190,80.483185 24.512133,79.912064 22.971155,82.666389 
	C19.140535,89.513176 15.676285,96.564941 11.943645,103.768410 
	C17.383686,104.161316 17.383686,104.161316 19.995577,98.381920 
M159.226089,110.791603 
	C159.441879,107.477234 159.709961,104.165207 159.858734,100.847832 
	C160.007538,97.529968 158.115112,95.823502 155.014389,95.831367 
	C151.657303,95.839897 147.640900,94.371506 144.687866,99.402557 
	C148.691147,99.402557 151.663864,99.402557 154.636581,99.402557 
	C154.723389,99.986496 154.810196,100.570435 154.896988,101.154373 
	C152.038940,102.124084 148.955399,102.709686 146.406479,104.206017 
	C144.851028,105.119148 143.332031,107.404991 143.269272,109.127930 
	C143.220688,110.461571 145.232758,112.611015 146.734726,113.070343 
	C148.555191,113.627060 150.802795,112.786980 153.038345,112.531555 
	C150.769363,110.611794 149.382919,109.438759 147.996490,108.265717 
	C150.029114,107.029160 152.061737,105.792603 154.811981,104.119476 
	C154.811981,107.930931 154.811981,110.356392 154.811981,113.756523 
	C156.656342,112.865952 157.914124,112.258606 159.226089,110.791603 
M139.746201,95.734116 
	C136.989594,95.972473 134.232971,96.210831 131.157120,96.476791 
	C131.157120,101.977020 131.157120,107.386696 131.157120,113.070564 
	C132.591553,112.985497 133.849701,112.910889 135.186188,112.831627 
	C135.298767,111.565895 135.332016,110.576660 135.482620,109.605637 
	C136.122452,105.480812 134.429337,100.032242 141.226700,99.355042 
	C140.978302,98.133156 140.729889,96.911278 139.746201,95.734116 
M46.942188,96.066261 
	C46.643452,99.838165 51.750282,103.882317 45.565189,107.355965 
	C50.738506,107.628082 54.950211,101.127510 54.069538,94.755402 
	C52.769447,96.799103 51.725685,98.439865 50.885883,99.760017 
	C49.616928,98.220322 48.475849,96.835793 46.942188,96.066261 
M71.389748,95.011757 
	C69.930550,96.621361 68.184891,98.075310 67.176941,99.930130 
	C66.850822,100.530258 68.460228,102.182198 69.184273,103.353012 
	C69.663582,103.202477 70.142899,103.051949 70.622215,102.901413 
	C69.177338,99.746841 69.013245,97.224899 73.093140,96.799217 
	C72.780434,96.212708 72.467720,95.626198 71.389748,95.011757 
z"/>
<path fill="#000000" opacity="1.000000" stroke="none" 
	d="
M81.531342,1.000000 
	C81.716614,1.640361 81.569954,2.712950 81.128197,2.852697 
	C77.596153,3.970031 74.024559,5.662571 70.433899,5.740398 
	C64.070488,5.878325 59.573860,9.944768 54.362453,12.350080 
	C48.338238,15.130542 42.662567,18.779156 37.156235,22.522528 
	C34.268787,24.485506 31.863129,27.287481 29.598486,30.008965 
	C24.983997,35.554314 20.151150,41.005260 16.266876,47.047096 
	C12.146262,53.456551 8.619787,60.334194 5.618358,67.343315 
	C3.926345,71.294609 3.864430,75.933426 2.952374,80.237991 
	C2.767767,81.109261 2.062684,81.870255 1.298776,82.341042 
	C1.000000,55.073109 1.000000,28.146214 1.000000,1.000000 
	C27.687160,1.000000 54.374924,1.000000 81.531342,1.000000 
z"/>
<path fill="#000000" opacity="1.000000" stroke="none" 
	d="
M1.000001,120.468658 
	C1.640361,120.283386 2.712948,120.430046 2.852696,120.871803 
	C3.970030,124.403854 5.662588,127.975449 5.740403,131.566101 
	C5.878309,137.929535 9.944784,142.426132 12.350080,147.637543 
	C15.130533,153.661774 18.779140,159.337433 22.522514,164.843781 
	C24.485487,167.731216 27.287483,170.136871 30.008966,172.401505 
	C35.554314,177.015991 41.005257,181.848846 47.047092,185.733124 
	C53.456558,189.853729 60.334206,193.380188 67.343323,196.381638 
	C71.294609,198.073639 75.933426,198.135605 80.237991,199.047653 
	C81.109268,199.232254 81.870255,199.937317 82.341049,200.701233 
	C55.073109,201.000000 28.146214,201.000000 1.000000,201.000000 
	C1.000000,174.312836 1.000000,147.625076 1.000001,120.468658 
z"/>
<path fill="#000000" opacity="1.000000" stroke="none" 
	d="
M120.468658,201.000000 
	C120.283379,200.359634 120.430038,199.287048 120.871788,199.147308 
	C124.403839,198.029968 127.975433,196.337448 131.566101,196.259598 
	C137.929504,196.121674 142.426132,192.055237 147.637543,189.649902 
	C153.661758,186.869446 159.337448,183.220871 164.843765,179.477493 
	C167.731232,177.514511 170.136856,174.712524 172.401505,171.991043 
	C177.016006,166.445694 181.848862,160.994751 185.733139,154.952927 
	C189.853760,148.543457 193.380219,141.665802 196.381638,134.656677 
	C198.073654,130.705368 198.135590,126.066566 199.047638,121.761993 
	C199.232239,120.890732 199.937317,120.129738 200.701233,119.658951 
	C201.000000,146.926895 201.000000,173.853790 201.000000,201.000000 
	C174.312836,201.000000 147.625076,201.000000 120.468658,201.000000 
z"/>
<path fill="#000000" opacity="1.000000" stroke="none" 
	d="
M201.000000,81.531342 
	C200.359650,81.716614 199.287048,81.569962 199.147308,81.128204 
	C198.029968,77.596161 196.337433,74.024574 196.259598,70.433914 
	C196.121674,64.070503 192.055237,59.573860 189.649933,54.362453 
	C186.869446,48.338234 183.220856,42.662556 179.477478,37.156223 
	C177.514511,34.268776 174.712524,31.863123 171.991043,29.598480 
	C166.445694,24.983994 160.994736,20.151142 154.952896,16.266874 
	C148.543442,12.146267 141.665817,8.619792 134.656693,5.618362 
	C130.705399,3.926345 126.066589,3.864426 121.762024,2.952371 
	C120.890747,2.767764 120.129753,2.062684 119.658958,1.298777 
	C146.926895,1.000000 173.853775,1.000000 201.000000,1.000000 
	C201.000000,27.687160 201.000000,54.374924 201.000000,81.531342 
z"/>
<path fill="#F0F9FF" opacity="1.000000" stroke="none" 
	d="
M168.333740,111.306015 
	C166.951370,112.274696 165.625076,112.819878 163.929001,113.517067 
	C163.929001,107.398041 163.929001,102.112206 163.929001,95.698921 
	C169.083176,96.249565 173.853653,96.817230 178.637924,97.221207 
	C179.590332,97.301613 180.647705,96.876320 181.568039,96.478951 
	C187.417984,93.953064 191.070694,96.542892 190.576874,102.904289 
	C190.332779,106.048775 190.108368,109.194794 189.841187,112.796562 
	C188.481873,112.861176 187.126282,112.925613 185.273895,113.013664 
	C185.479004,109.803947 185.969208,107.005867 185.717621,104.276161 
	C185.562134,102.589218 184.277634,101.006332 183.500000,99.376732 
	C182.214355,100.848915 180.291107,102.133583 179.790268,103.836578 
	C179.009933,106.489914 179.195251,109.427238 178.931610,112.744186 
	C177.642883,112.839699 176.277115,112.940918 174.749359,113.054138 
	C174.586670,112.050385 174.374039,111.415291 174.402100,110.791016 
	C174.506760,108.462906 175.008301,106.099968 174.733780,103.825813 
	C174.547668,102.284142 173.313065,100.869034 172.547379,99.397331 
	C171.332855,100.734451 169.522217,101.889099 169.043930,103.451584 
	C168.332016,105.777390 168.561157,108.391243 168.333740,111.306015 
z"/>
<path fill="#F3FAFF" opacity="1.000000" stroke="none" 
	d="
M110.037392,99.008690 
	C107.066650,100.722969 104.283089,103.063751 101.085594,104.019028 
	C94.743523,105.913765 88.752457,103.470604 86.138107,98.744789 
	C83.781097,94.484154 84.785736,87.935432 88.329956,84.457291 
	C92.381775,80.481018 100.870110,79.692291 106.002983,82.815140 
	C110.495415,85.548340 111.940430,90.454453 110.142105,96.857376 
	C110.007523,97.336555 109.893417,97.821503 109.872040,98.692680 
	C109.974281,99.081589 110.037392,99.008690 110.037392,99.008690 
M100.604515,84.834282 
	C94.763611,84.128113 91.162926,86.356491 90.163918,91.295731 
	C89.258881,95.770355 91.719398,99.805290 96.135223,100.681885 
	C99.951675,101.439491 103.040710,100.131195 104.810104,96.539589 
	C106.963577,92.168358 105.717064,88.250450 100.604515,84.834282 
z"/>
<path fill="#F0F9FF" opacity="1.000000" stroke="none" 
	d="
M109.938339,99.113716 
	C114.895821,95.241577 120.515648,94.971390 127.295876,96.527664 
	C126.925858,103.028145 126.992691,109.805138 126.013916,116.427589 
	C125.286018,121.352577 120.712975,121.345314 116.839546,121.040436 
	C114.313652,120.841599 110.550346,122.174500 110.220680,117.796082 
	C113.774017,117.361908 117.184334,117.315247 120.311905,116.351265 
	C121.330780,116.037224 121.611923,113.329659 122.555649,110.868896 
	C117.959641,113.498390 114.049561,114.703583 110.701508,111.356598 
	C107.247223,107.903404 108.282982,103.734772 110.045547,99.376511 
	C110.037392,99.008690 109.974281,99.081589 109.938339,99.113716 
M122.330925,102.446808 
	C122.769226,99.777527 121.548859,98.822235 118.985901,99.105537 
	C115.197395,99.524307 113.140762,101.860497 113.483444,105.383400 
	C113.637375,106.965851 115.664955,109.419617 117.095337,109.613724 
	C120.489456,110.074333 121.907059,107.470680 122.147224,104.290123 
	C122.172089,103.960793 122.216225,103.632919 122.330925,102.446808 
z"/>
<path fill="#F3FAFF" opacity="1.000000" stroke="none" 
	d="
M19.825180,98.748093 
	C17.383686,104.161316 17.383686,104.161316 11.943645,103.768410 
	C15.676285,96.564941 19.140535,89.513176 22.971155,82.666389 
	C24.512133,79.912064 29.379190,80.483185 30.538416,83.466408 
	C33.114414,90.095665 35.434525,96.824356 37.851860,103.492966 
	C33.909454,105.241585 32.333405,103.512604 31.215296,100.047867 
	C29.578590,94.976112 23.523180,94.184830 19.825180,98.748093 
M27.023014,92.741692 
	C27.187550,90.486961 27.352085,88.232239 27.516621,85.977509 
	C26.957359,85.894638 26.398096,85.811768 25.838835,85.728889 
	C24.855089,87.844627 23.871344,89.960365 22.713078,92.451439 
	C24.381165,92.603088 25.335625,92.689857 27.023014,92.741692 
z"/>
<path fill="#EAF7FF" opacity="1.000000" stroke="none" 
	d="
M159.199005,111.221436 
	C157.914124,112.258606 156.656342,112.865952 154.811981,113.756523 
	C154.811981,110.356392 154.811981,107.930931 154.811981,104.119476 
	C152.061737,105.792603 150.029114,107.029160 147.996490,108.265717 
	C149.382919,109.438759 150.769363,110.611794 153.038345,112.531555 
	C150.802795,112.786980 148.555191,113.627060 146.734726,113.070343 
	C145.232758,112.611015 143.220688,110.461571 143.269272,109.127930 
	C143.332031,107.404991 144.851028,105.119148 146.406479,104.206017 
	C148.955399,102.709686 152.038940,102.124084 154.896988,101.154373 
	C154.810196,100.570435 154.723389,99.986496 154.636581,99.402557 
	C151.663864,99.402557 148.691147,99.402557 144.687866,99.402557 
	C147.640900,94.371506 151.657303,95.839897 155.014389,95.831367 
	C158.115112,95.823502 160.007538,97.529968 159.858734,100.847832 
	C159.709961,104.165207 159.441879,107.477234 159.199005,111.221436 
z"/>
<path fill="#F2FAFF" opacity="1.000000" stroke="none" 
	d="
M75.272758,103.855942 
	C75.665489,96.487717 76.058212,89.119492 76.466270,81.463684 
	C78.244125,81.463684 79.787224,81.463684 80.921150,81.463684 
	C80.921150,88.792389 80.921150,95.874710 80.415909,103.354477 
	C78.364700,103.786598 76.818733,103.821274 75.272758,103.855942 
z"/>
<path fill="#EDF8FF" opacity="1.000000" stroke="none" 
	d="
M140.113831,95.711761 
	C140.729889,96.911278 140.978302,98.133156 141.226700,99.355042 
	C134.429337,100.032242 136.122452,105.480812 135.482620,109.605637 
	C135.332016,110.576660 135.298767,111.565895 135.186188,112.831627 
	C133.849701,112.910889 132.591553,112.985497 131.157120,113.070564 
	C131.157120,107.386696 131.157120,101.977020 131.157120,96.476791 
	C134.232971,96.210831 136.989594,95.972473 140.113831,95.711761 
z"/>
<path fill="#94D5FD" opacity="1.000000" stroke="none" 
	d="
M93.992218,111.802979 
	C92.077560,112.476173 90.162910,113.149376 87.275047,114.164764 
	C89.544868,115.037132 90.908661,115.561287 92.685951,116.244362 
	C89.607452,118.392365 86.766068,118.058235 85.412521,115.300545 
	C84.678375,113.804817 85.451836,110.409798 86.755791,109.320213 
	C89.283005,107.208458 92.053070,108.020630 93.744049,111.652260 
	C93.974068,111.934052 93.992218,111.802979 93.992218,111.802979 
z"/>
<path fill="#8FD3FD" opacity="1.000000" stroke="none" 
	d="
M99.067055,112.398117 
	C100.594711,111.029137 101.949730,108.982910 103.711845,108.533707 
	C104.851204,108.243271 106.586403,110.290230 108.054604,111.289757 
	C107.826424,111.710258 107.598244,112.130760 107.370056,112.551262 
	C105.697113,112.894829 104.024162,113.238396 102.351219,113.581963 
	C102.308876,113.888794 102.266525,114.195618 102.224182,114.502449 
	C103.594482,114.952431 104.964783,115.402412 106.318253,115.846870 
	C103.206100,118.588333 101.875427,118.329674 99.025482,113.843201 
	C98.966835,112.965538 98.992271,112.679634 99.067055,112.398117 
z"/>
<path fill="#97D7FD" opacity="1.000000" stroke="none" 
	d="
M75.395180,104.196938 
	C76.818733,103.821274 78.364700,103.786598 80.294647,103.796585 
	C81.713081,104.733376 82.747551,105.625511 82.829216,105.695946 
	C81.604736,109.897141 80.541679,113.544495 79.478615,117.191856 
	C79.148727,117.207001 78.818840,117.222145 78.488953,117.237289 
	C78.279716,116.146370 77.966873,115.063423 77.882095,113.962921 
	C77.685112,111.405792 79.107048,108.230698 75.113930,107.154663 
	C75.020248,107.129425 75.373055,105.447250 75.395180,104.196938 
z"/>
<path fill="#97D7FD" opacity="1.000000" stroke="none" 
	d="
M47.138481,95.758759 
	C48.475849,96.835793 49.616928,98.220322 50.885883,99.760017 
	C51.725685,98.439865 52.769447,96.799103 54.069538,94.755402 
	C54.950211,101.127510 50.738506,107.628082 45.565189,107.355965 
	C51.750282,103.882317 46.643452,99.838165 47.138481,95.758759 
z"/>
<path fill="#97D7FD" opacity="1.000000" stroke="none" 
	d="
M62.916069,98.028389 
	C61.620243,98.585396 59.955219,98.827911 59.135368,99.790375 
	C58.359726,100.700935 58.471336,102.367294 58.192715,103.701233 
	C57.750141,103.666115 57.307568,103.630997 56.864994,103.595879 
	C56.864994,100.979683 56.864994,98.363487 56.864994,94.246887 
	C60.010429,95.362450 62.573544,96.271484 64.758911,97.591064 
	C63.892796,98.010544 63.404430,98.019470 62.916069,98.028389 
z"/>
<path fill="#9ED9FE" opacity="1.000000" stroke="none" 
	d="
M98.670448,112.206100 
	C98.992271,112.679634 98.966835,112.965538 99.028076,113.467682 
	C98.082390,114.714500 97.099380,115.749458 95.436287,117.500450 
	C95.051750,115.581337 94.755020,114.100441 94.225250,112.211266 
	C93.992218,111.802979 93.974068,111.934052 93.978165,111.966125 
	C94.582832,109.970383 95.183403,107.942558 95.783974,105.914734 
	C96.176392,105.905403 96.568817,105.896065 96.961243,105.886734 
	C97.398773,107.929184 97.836304,109.971634 98.670448,112.206100 
z"/>
<path fill="#A2DBFE" opacity="1.000000" stroke="none" 
	d="
M71.772385,95.025726 
	C72.467720,95.626198 72.780434,96.212708 73.093140,96.799217 
	C69.013245,97.224899 69.177338,99.746841 70.622215,102.901413 
	C70.142899,103.051949 69.663582,103.202477 69.184273,103.353012 
	C68.460228,102.182198 66.850822,100.530258 67.176941,99.930130 
	C68.184891,98.075310 69.930550,96.621361 71.772385,95.025726 
z"/>
<path fill="#9BD8FD" opacity="1.000000" stroke="none" 
	d="
M62.914192,98.434860 
	C63.404430,98.019470 63.892796,98.010544 64.747681,97.998672 
	C65.008476,99.828163 64.902733,101.660614 64.796997,103.493057 
	C64.319496,103.516876 63.841995,103.540688 63.364494,103.564499 
	C63.213772,101.990112 63.063046,100.415726 62.914192,98.434860 
z"/>
<path fill="#099FFB" opacity="1.000000" stroke="none" 
	d="
M100.967987,84.935326 
	C105.717064,88.250450 106.963577,92.168358 104.810104,96.539589 
	C103.040710,100.131195 99.951675,101.439491 96.135223,100.681885 
	C91.719398,99.805290 89.258881,95.770355 90.163918,91.295731 
	C91.162926,86.356491 94.763611,84.128113 100.967987,84.935326 
z"/>
<path fill="#11A2FB" opacity="1.000000" stroke="none" 
	d="
M122.291168,102.875595 
	C122.216225,103.632919 122.172089,103.960793 122.147224,104.290123 
	C121.907059,107.470680 120.489456,110.074333 117.095337,109.613724 
	C115.664955,109.419617 113.637375,106.965851 113.483444,105.383400 
	C113.140762,101.860497 115.197395,99.524307 118.985901,99.105537 
	C121.548859,98.822235 122.769226,99.777527 122.291168,102.875595 
z"/>
<path fill="#35B1FC" opacity="1.000000" stroke="none" 
	d="
M26.656549,92.759163 
	C25.335625,92.689857 24.381165,92.603088 22.713078,92.451439 
	C23.871344,89.960365 24.855089,87.844627 25.838835,85.728889 
	C26.398096,85.811768 26.957359,85.894638 27.516621,85.977509 
	C27.352085,88.232239 27.187550,90.486961 26.656549,92.759163 
z"/>
</svg>